<svg width="176" height="77" viewBox="0 0 176 77" fill="none" xmlns="http://www.w3.org/2000/svg">
<g clip-path="url(#clip0)">
<path d="M55.4901 72.4135C55.6107 71.81 55.7313 71.0859 55.852 70.6031H56.5757C56.5757 70.7238 56.4551 71.4479 56.3345 72.0514C56.817 71.0859 57.6614 70.4824 58.6265 70.4824L58.3852 71.3272C57.1789 71.4479 56.2138 72.4135 55.9726 73.8617L55.3694 76.879H54.525L55.4901 72.4135Z" fill="black"/>
<path d="M59.5915 73.741C59.5915 73.9824 59.5915 74.2238 59.5915 74.4652C59.5915 75.6721 60.1947 76.2755 61.1597 76.2755C62.1247 76.2755 62.6073 75.6721 62.9692 75.1893H63.8136C63.331 76.1548 62.6073 76.9997 61.1597 76.9997C59.5915 76.9997 58.9883 75.9135 58.9883 74.5859C58.9883 72.7755 59.9534 70.4824 62.2454 70.4824C63.8136 70.4824 64.4167 71.5686 64.4167 72.6548C64.4167 73.0169 64.4167 73.379 64.2961 73.8617H59.5915V73.741ZM63.2104 73.1376C63.2104 73.0169 63.2104 72.7755 63.2104 72.6548C63.2104 71.6893 62.7279 71.2066 61.7629 71.2066C60.6772 71.2066 59.9534 71.9307 59.5915 73.2583H63.2104V73.1376Z" fill="black"/>
<path d="M69.6038 75.3096C69.4832 75.7924 69.3626 76.6372 69.3626 76.8786H68.6388C68.6388 76.6372 68.7594 76.2751 68.8801 75.7924C68.5182 76.2751 68.0356 76.9993 66.7087 76.9993C65.3818 76.9993 65.0199 76.1544 65.0199 75.4303C65.0199 73.62 66.7087 73.2579 67.915 73.1372C68.6388 73.1372 69.2419 73.1372 69.4832 73.0165L69.6038 72.5337C69.7245 71.9303 69.7245 71.0855 68.3975 71.0855C67.1912 71.0855 66.95 71.6889 66.7087 72.1717H65.8643C66.1056 71.3268 66.7087 70.3613 68.3975 70.3613C69.8451 70.3613 70.6895 70.9648 70.3276 72.4131L69.6038 75.3096ZM69.1213 73.62C68.7594 73.62 68.3975 73.6199 67.7944 73.7406C66.7087 73.8613 65.623 74.1027 65.623 75.3096C65.623 75.7924 65.9849 76.2751 66.7087 76.2751C68.1563 76.2751 68.7594 75.1889 69.1213 73.62Z" fill="black"/>
<path d="M76.2385 75.0686C75.756 76.2755 74.9116 76.9997 73.5847 76.9997C72.0165 76.9997 71.4133 75.9135 71.4133 74.5859C71.4133 72.6548 72.499 70.4824 74.5497 70.4824C76.2385 70.4824 76.721 71.6893 76.6004 72.5341H75.8766C75.8766 71.6893 75.5147 71.0859 74.5497 71.0859C72.9815 71.0859 72.2577 72.8962 72.2577 74.3445C72.2577 75.6721 72.8609 76.1548 73.8259 76.1548C74.5497 76.1548 75.1529 75.6721 75.6354 74.9479H76.2385V75.0686Z" fill="black"/>
<path d="M79.9781 67.707L79.1337 71.6898C79.6162 70.9657 80.2193 70.4829 81.305 70.4829C82.1494 70.4829 83.2351 70.845 82.8732 72.776L82.0288 76.8795H81.1844L82.0288 73.0174C82.2701 71.8105 82.0288 71.207 80.9431 71.207C79.8574 71.207 79.013 72.1726 78.6511 73.5001L77.9273 76.8795H77.0829L79.013 67.707H79.9781Z" fill="black"/>
<path d="M87.3365 76.879L88.5428 71.3273H87.4572L87.5778 70.6032H88.6635L88.9047 69.6377C89.146 68.5515 89.6285 67.5859 90.9555 67.5859C91.1967 67.5859 91.5586 67.5859 91.6792 67.7066L91.5586 68.4308C91.438 68.4308 91.1967 68.3101 90.9555 68.3101C90.3523 68.3101 89.9904 68.7928 89.7492 69.6377L89.5079 70.6032H90.8348L90.5936 71.2066H89.2666L88.0603 76.7584H87.3365V76.879Z" fill="black"/>
<path d="M95.4188 75.1897C95.2981 75.7932 95.1775 76.3966 95.0569 76.8794H94.3331C94.3331 76.638 94.4537 76.0345 94.5744 75.6725C94.2125 76.3966 93.4887 77.0001 92.403 77.0001C91.3173 77.0001 90.4729 76.3966 90.8348 74.707L91.6792 70.6035H92.403L91.6792 74.5863C91.438 75.4311 91.5586 76.2759 92.6443 76.2759C93.73 76.2759 94.5744 75.4311 95.0569 73.6208L95.66 70.6035H96.5045L95.4188 75.1897Z" fill="black"/>
<path d="M97.952 72.4135C98.0727 71.81 98.1933 71.0859 98.3139 70.6031H99.0377C99.0377 70.7238 98.9171 71.4479 98.7964 72.0514C99.279 71.0859 100.123 70.4824 101.088 70.4824L100.847 71.3272C99.6409 71.4479 98.6758 72.4135 98.4345 73.8617L97.8314 76.879H96.987L97.952 72.4135Z" fill="black"/>
<path d="M101.933 70.6033H103.019L103.38 68.793H104.225L103.742 70.6033H105.19L104.949 71.2068H103.501L102.657 75.1895C102.536 75.793 102.536 76.155 103.139 76.155C103.26 76.155 103.622 76.155 103.742 76.155V76.7585C103.501 76.8792 103.26 76.8792 103.019 76.8792C102.174 76.8792 101.812 76.5171 102.053 75.4309L102.898 71.2068H101.812L101.933 70.6033Z" fill="black"/>
<path d="M107.723 67.707L106.879 71.6898C107.361 70.9657 107.964 70.4829 109.05 70.4829C109.894 70.4829 110.98 70.845 110.618 72.776L109.774 76.8795H108.929L109.774 73.0174C110.015 71.8105 109.774 71.207 108.688 71.207C107.602 71.207 106.758 72.1726 106.396 73.5001L105.672 76.8795H104.949L106.879 67.707H107.723Z" fill="black"/>
<path d="M112.79 73.741C112.79 73.9824 112.79 74.2238 112.79 74.4652C112.79 75.6721 113.393 76.2755 114.358 76.2755C115.323 76.2755 115.805 75.6721 116.167 75.1893H117.012C116.529 76.1548 115.805 76.9997 114.358 76.9997C112.79 76.9997 112.186 75.9135 112.186 74.5859C112.186 72.7755 113.151 70.4824 115.443 70.4824C117.012 70.4824 117.615 71.5686 117.615 72.6548C117.615 73.0169 117.615 73.379 117.494 73.8617H112.79V73.741ZM116.409 73.1376C116.409 73.0169 116.409 72.7755 116.409 72.6548C116.409 71.6893 115.926 71.2066 114.961 71.2066C113.875 71.2066 113.151 71.9307 112.79 73.2583H116.409V73.1376Z" fill="black"/>
<path d="M118.942 72.4135C119.062 71.81 119.183 71.0859 119.304 70.6031H120.027C120.027 70.7238 119.907 71.4479 119.786 72.0514C120.269 71.0859 121.113 70.4824 122.078 70.4824L121.837 71.3272C120.631 71.4479 119.666 72.4135 119.424 73.8617L118.821 76.879H117.977L118.942 72.4135Z" fill="black"/>
<path d="M90.8348 0.120874C90.2317 0.241564 89.9904 0.362254 89.6285 0.482943C88.5428 0.845012 88.0603 1.56915 88.3016 2.65536C88.5428 3.50019 88.9047 4.4657 89.3873 5.18984C90.7142 6.8795 92.2824 8.44846 93.73 10.0174C95.4188 11.7071 97.2282 13.3967 98.7964 15.2071C99.6409 16.1726 100.365 17.3795 100.847 18.7071C101.812 21.0002 101.209 23.1726 99.6409 25.345C100.003 23.2933 99.279 21.845 98.0727 20.7588C96.1426 19.0692 93.9712 17.5002 91.9205 15.9312C89.6285 14.2416 87.0953 12.5519 84.8033 10.7416C83.1145 9.41398 81.6669 7.72432 81.1844 5.43122C80.8225 3.62087 81.4256 2.29329 83.1145 1.44846C85.6477 0.120874 88.0603 -0.120505 90.8348 0.120874Z" fill="black"/>
<path d="M79.013 25.7072C72.9815 20.7589 72.499 10.0175 78.6511 4.46582C78.7718 6.27617 79.4955 7.96582 80.4606 9.53479C80.5812 9.77617 80.5812 10.2589 80.4606 10.621C78.8924 14.3624 77.9274 18.2244 78.4099 22.2072C78.4099 23.2934 78.7718 24.5003 79.013 25.7072Z" fill="black"/>
<path d="M87.8191 29.6896C84.2001 29.6896 82.1494 27.8792 81.7875 24.1379C81.4256 20.3965 82.3907 16.7758 84.0795 13.3965C85.5271 14.4827 86.854 15.4482 88.1809 16.4137C86.2509 20.7586 84.562 25.1034 87.8191 29.6896Z" fill="black"/>
<path d="M98.0727 26.7933C96.8663 27.7588 95.5394 28.6036 93.9712 28.845C92.8855 29.0864 91.9205 28.6036 91.5586 27.5174C90.5936 24.6209 91.1967 21.9657 92.8855 19.3105C94.0918 20.3968 95.2982 21.3623 96.3838 22.3278C96.6251 22.4485 96.5045 22.9312 96.6251 23.1726C96.7457 24.0174 96.8663 24.983 97.2282 25.8278C97.1076 26.3105 97.5901 26.4312 98.0727 26.7933Z" fill="black"/>
<path d="M93.2474 0.96582C95.5394 0.96582 98.9171 3.25892 99.7615 5.31065C100.244 6.51754 99.6408 7.36237 98.3139 7.36237C96.1426 7.36237 92.6443 5.06927 91.7999 3.01754C91.3173 1.68996 91.9205 0.96582 93.2474 0.96582Z" fill="black"/>
<path d="M7.23783 45.3799H8.80603L11.4599 53.3454L13.9931 45.3799H15.9232L12.1837 56.1213H10.6155L7.96162 48.3971L5.30775 56.1213H3.73955L0 45.3799H2.05072L4.58396 53.3454L7.23783 45.3799Z" fill="black"/>
<path d="M30.037 56.1213H28.1069L27.0212 53.5868H21.9548L20.8691 56.1213H18.939L23.6436 45.3799H25.3324L30.037 56.1213ZM24.3674 47.5523L22.5579 51.8971H26.2975L24.3674 47.5523Z" fill="black"/>
<path d="M35.4654 45.3799H37.3955V54.4316H43.0651V56.1213H35.586V45.3799H35.4654Z" fill="black"/>
<path d="M52.8362 56.1207H50.9061V47.1897H47.5284V45.5H56.2138V47.1897H52.8362V56.1207Z" fill="black"/>
<path d="M69.8451 47.0695H63.8136V49.8454H69.242V51.5351H63.8136V54.4316H69.9657V56.1213H62.0041V45.3799H69.9657V47.0695H69.8451Z" fill="black"/>
<path d="M82.7526 56.1213L80.0987 52.3799H77.6861V56.1213H75.8766V45.3799H80.7019C81.305 45.3799 81.9082 45.5006 82.3907 45.6213C82.8732 45.742 83.3557 45.9833 83.597 46.3454C83.9589 46.5868 84.2001 46.9488 84.4414 47.4316C84.6827 47.9144 84.6827 48.2764 84.6827 48.8799C84.6827 49.3626 84.562 49.7247 84.4414 50.0868C84.3208 50.4489 84.0795 50.6902 83.9589 51.0523C83.7176 51.2937 83.4764 51.5351 83.1145 51.7764C82.7526 52.0178 82.5113 52.1385 82.0288 52.2592L84.9239 56.3626H82.7526V56.1213ZM82.1494 47.5523C81.7875 47.1902 81.1844 47.0695 80.4606 47.0695H77.6861V50.6902H80.4606C81.1844 50.6902 81.6669 50.5695 82.0288 50.2075C82.3907 49.8454 82.6319 49.4833 82.6319 48.8799C82.6319 48.2764 82.5113 47.9144 82.1494 47.5523Z" fill="black"/>
<path d="M98.0727 48.7592C98.1933 48.8799 98.3139 49.0006 98.4345 49.242C98.6758 49.3626 98.9171 49.4833 99.1583 49.604C99.5202 49.7247 99.8821 49.8454 100.365 49.9661C100.968 50.0868 101.45 50.2075 101.812 50.4488C102.295 50.5695 102.657 50.8109 102.898 51.0523C103.139 51.2937 103.38 51.5351 103.501 51.8971C103.622 52.2592 103.742 52.6213 103.742 53.104C103.742 53.5868 103.622 54.0695 103.501 54.4316C103.26 54.7937 103.019 55.1557 102.777 55.3971C102.415 55.6385 102.053 55.8799 101.571 56.0006C101.088 56.1213 100.606 56.242 100.003 56.242C99.1583 56.242 98.4346 56.1213 97.5901 55.8799C96.8664 55.6385 96.1426 55.1557 95.5394 54.5523L96.6251 53.2247C97.1076 53.7075 97.7108 54.0695 98.1933 54.3109C98.6758 54.5523 99.279 54.673 100.003 54.673C100.606 54.673 101.088 54.5523 101.33 54.3109C101.692 54.0695 101.812 53.7075 101.812 53.3454C101.812 53.104 101.812 52.9833 101.692 52.8626C101.571 52.742 101.45 52.6213 101.33 52.5006C101.209 52.3799 100.847 52.2592 100.606 52.1385C100.244 52.0178 99.8821 51.8971 99.3996 51.7764C98.7964 51.6557 98.3139 51.5351 97.8314 51.2937C97.3489 51.173 96.987 50.9316 96.7457 50.6902C96.3838 50.4488 96.2632 50.2075 96.0219 49.8454C95.9013 49.4833 95.7807 49.1213 95.7807 48.5178C95.7807 48.0351 95.9013 47.673 96.0219 47.1902C96.2632 46.8282 96.5045 46.4661 96.7457 46.2247C97.1076 45.9833 97.4695 45.742 97.952 45.6213C98.4345 45.5006 98.9171 45.3799 99.3996 45.3799C100.244 45.3799 100.847 45.5006 101.571 45.742C102.174 45.9833 102.777 46.3454 103.38 46.7075L102.415 48.1557C101.933 47.7937 101.45 47.5523 100.968 47.3109C100.485 47.0695 100.003 47.0695 99.5202 47.0695C98.9171 47.0695 98.5552 47.1902 98.1933 47.4316C97.8314 47.673 97.7108 48.0351 97.7108 48.3971C97.952 48.3971 97.952 48.6385 98.0727 48.7592Z" fill="black"/>
<path d="M120.51 52.8624C120.269 53.5865 119.907 54.0693 119.304 54.6728C118.7 55.2762 118.218 55.6383 117.494 55.8797C116.77 56.121 116.047 56.3624 115.202 56.3624C114.358 56.3624 113.634 56.2417 112.91 55.8797C112.186 55.5176 111.583 55.1555 111.101 54.6728C110.618 54.19 110.256 53.5865 109.894 52.8624C109.653 52.1383 109.533 51.5348 109.533 50.69C109.533 49.9659 109.653 49.2417 109.894 48.5176C110.136 47.7934 110.498 47.3107 111.101 46.7072C111.583 46.2245 112.186 45.7417 112.91 45.5003C113.634 45.259 114.358 45.0176 115.202 45.0176C116.047 45.0176 116.77 45.1383 117.494 45.5003C118.218 45.7417 118.821 46.2245 119.304 46.7072C119.786 47.19 120.148 47.7934 120.51 48.5176C120.751 49.2417 120.872 49.9659 120.872 50.69C120.872 51.5348 120.751 52.259 120.51 52.8624ZM118.7 49.3624C118.58 48.8797 118.218 48.5176 117.977 48.1555C117.615 47.7934 117.253 47.5521 116.77 47.3107C116.288 47.0693 115.805 46.9486 115.323 46.9486C114.84 46.9486 114.358 47.0693 113.875 47.19C113.393 47.4314 113.031 47.6728 112.79 48.0348C112.548 48.3969 112.186 48.759 112.066 49.2417C111.945 49.7245 111.825 50.2072 111.825 50.69C111.825 51.1728 111.945 51.6555 112.066 52.1383C112.186 52.621 112.548 52.9831 112.79 53.3452C113.151 53.7072 113.513 53.9486 113.996 54.19C114.478 54.4314 114.961 54.5521 115.443 54.5521C115.926 54.5521 116.409 54.4314 116.891 54.3107C117.374 54.0693 117.735 53.8279 117.977 53.4659C118.339 53.1038 118.58 52.7417 118.7 52.259C118.821 51.7762 118.942 51.2934 118.942 50.8107C118.942 50.3279 118.821 49.7245 118.7 49.3624Z" fill="black"/>
<path d="M135.106 50.569C134.865 51.0517 134.624 51.4138 134.141 51.7759C133.779 52.1379 133.297 52.2586 132.814 52.5C132.332 52.6207 131.729 52.7414 131.125 52.7414H129.075V56.2414H127.265V45.5H131.487C132.09 45.5 132.694 45.6207 133.176 45.7414C133.659 45.8621 134.141 46.1034 134.503 46.4655C134.865 46.8276 135.106 47.1897 135.348 47.5517C135.589 47.9138 135.589 48.5172 135.589 49C135.468 49.6034 135.348 50.0862 135.106 50.569ZM132.935 47.5517C132.573 47.1897 131.97 47.069 131.246 47.069H129.075V50.931H131.246C131.97 50.931 132.573 50.8103 132.935 50.4483C133.297 50.0862 133.538 49.6034 133.538 49C133.538 48.3965 133.297 47.9138 132.935 47.5517Z" fill="black"/>
<path d="M143.188 51.6557V56.1213H141.379V45.3799H143.188V49.8454H148.376V45.3799H150.185V56.1213H148.376V51.6557H143.188Z" fill="black"/>
<path d="M158.991 45.3799V56.1213H157.182V45.3799H158.991Z" fill="black"/>
<path d="M176 56.1213H174.07L172.984 53.5868H167.918L166.832 56.1213H164.902L169.607 45.3799H171.295L176 56.1213ZM170.451 47.5523L168.642 51.8971H172.381L170.451 47.5523Z" fill="black"/>
</g>
<defs>
<clipPath id="clip0">
<rect width="176" height="77" fill="white"/>
</clipPath>
</defs>
</svg>
